<?xml version="1.0" encoding="UTF-8" standalone="no"?>
<svg
   xmlns:dc="http://purl.org/dc/elements/1.1/"
   xmlns:cc="http://creativecommons.org/ns#"
   xmlns:rdf="http://www.w3.org/1999/02/22-rdf-syntax-ns#"
   xmlns:svg="http://www.w3.org/2000/svg"
   xmlns="http://www.w3.org/2000/svg"
   xmlns:sodipodi="http://sodipodi.sourceforge.net/DTD/sodipodi-0.dtd"
   xmlns:inkscape="http://www.inkscape.org/namespaces/inkscape"
   width="50"
   height="50"
   viewBox="0 0 50 50"
   id="svg2"
   version="1.1"
   inkscape:version="0.48.5 r10040"
   sodipodi:docname="music.svg">
  <metadata
     id="metadata12">
    <rdf:RDF>
      <cc:Work
         rdf:about="">
        <dc:format>image/svg+xml</dc:format>
        <dc:type
           rdf:resource="http://purl.org/dc/dcmitype/StillImage" />
      </cc:Work>
    </rdf:RDF>
  </metadata>
  <defs
     id="defs10" />
  <sodipodi:namedview
     pagecolor="#ffffff"
     bordercolor="#666666"
     borderopacity="1"
     objecttolerance="10"
     gridtolerance="10"
     guidetolerance="10"
     inkscape:pageopacity="0"
     inkscape:pageshadow="2"
     inkscape:window-width="1680"
     inkscape:window-height="1026"
     id="namedview8"
     showgrid="true"
     inkscape:snap-bbox="true"
     inkscape:zoom="13.906433"
     inkscape:cx="36.660635"
     inkscape:cy="20.903566"
     inkscape:window-x="0"
     inkscape:window-y="24"
     inkscape:window-maximized="1"
     inkscape:current-layer="svg2">
    <inkscape:grid
       type="xygrid"
       id="grid2989"
       empspacing="5"
       visible="true"
       enabled="true"
       snapvisiblegridlinesonly="true" />
  </sodipodi:namedview>
  <path
     d="m 5.111111,18.158494 v 13.683012 h 8.864198 L 25.055555,43.244014 V 6.7559863 L 13.975309,18.158494 H 5.111111 z M 35.027778,25 c 0,-4.036488 -2.260371,-7.502851 -5.540124,-9.190421 V 34.167616 C 32.767407,32.50285 35.027778,29.036488 35.027778,25 z M 29.487654,5 V 9.6978333 C 35.892037,11.659065 40.567902,17.77081 40.567902,25 c 0,7.229191 -4.675865,13.340935 -11.080248,15.302167 V 45 C 38.374013,42.924744 45,34.760547 45,25 45,15.239453 38.374013,7.0752566 29.487654,5 z"
     id="path4"
     inkscape:connector-curvature="0"
     style="fill:#00bcd4;fill-opacity:1" />
  <path
     d="M 0,26 H 24 V 50 H 0 z"
     id="path6"
     inkscape:connector-curvature="0"
     style="fill:none" />
</svg>
