<?xml version="1.0" encoding="UTF-8" standalone="no"?>
<!-- Created with Inkscape (http://www.inkscape.org/) -->

<svg
   xmlns:dc="http://purl.org/dc/elements/1.1/"
   xmlns:cc="http://creativecommons.org/ns#"
   xmlns:rdf="http://www.w3.org/1999/02/22-rdf-syntax-ns#"
   xmlns:svg="http://www.w3.org/2000/svg"
   xmlns="http://www.w3.org/2000/svg"
   xmlns:sodipodi="http://sodipodi.sourceforge.net/DTD/sodipodi-0.dtd"
   xmlns:inkscape="http://www.inkscape.org/namespaces/inkscape"
   width="40"
   height="40"
   id="svg4621"
   version="1.1"
   inkscape:version="0.48.4 r9939"
   sodipodi:docname="player.svg">
  <defs
     id="defs4623" />
  <sodipodi:namedview
     id="base"
     pagecolor="#ffffff"
     bordercolor="#666666"
     borderopacity="1.0"
     inkscape:pageopacity="0.0"
     inkscape:pageshadow="2"
     inkscape:zoom="11.313709"
     inkscape:cx="34.729856"
     inkscape:cy="5.7259126"
     inkscape:document-units="px"
     inkscape:current-layer="layer1"
     showgrid="true"
     inkscape:snap-bbox="true"
     showguides="false"
     inkscape:window-width="1440"
     inkscape:window-height="876"
     inkscape:window-x="0"
     inkscape:window-y="24"
     inkscape:window-maximized="1">
    <inkscape:grid
       empspacing="5"
       visible="true"
       enabled="true"
       snapvisiblegridlinesonly="true"
       type="xygrid"
       id="grid4642" />
  </sodipodi:namedview>
  <metadata
     id="metadata4626">
    <rdf:RDF>
      <cc:Work
         rdf:about="">
        <dc:format>image/svg+xml</dc:format>
        <dc:type
           rdf:resource="http://purl.org/dc/dcmitype/StillImage" />
        <dc:title />
      </cc:Work>
    </rdf:RDF>
  </metadata>
  <g
     inkscape:label="Layer 1"
     inkscape:groupmode="layer"
     id="layer1"
     transform="translate(0,-1012.3622)">
    <path
       style="fill:#e74c3c;fill-opacity:1;stroke:none"
       d="m 18.837998,1049.3255 c -1.069771,-0.067 -1.769712,-0.1682 -2.922028,-0.4201 -1.044901,-0.2285 -3.180611,-0.9207 -2.888852,-0.9367 0.0485,0 0.148503,-0.1602 0.222232,-0.35 0.07373,-0.1898 0.275941,-0.5875 0.44936,-0.8835 1.154692,-1.9704 3.224982,-3.2483 5.607089,-3.4612 3.188735,-0.2848 6.105909,1.3472 7.367783,4.122 0.132581,0.2914 0.272508,0.543 0.310948,0.5588 0.215567,0.088 -1.87061,0.751 -3.21179,1.0193 -1.7064,0.3414 -3.297847,0.4545 -4.934742,0.3514 l 0,0 z"
       id="path3236"
       inkscape:connector-curvature="0" />
    <path
       style="fill:none;stroke:#000000;stroke-width:1.11243439px;stroke-linecap:butt;stroke-linejoin:miter;stroke-opacity:1"
       d="m 17.52926,1023.1595 0,0"
       id="path3077-4"
       inkscape:connector-type="polyline"
       inkscape:connector-curvature="0" />
    <path
       style="fill:#3498db;fill-opacity:1;stroke:none"
       d="M 19.40625 0 C 12.303518 0.014975 5.3066337 0.283 1.75 0.8125 C 1.3291573 0.8741 0.9566158 0.94975 0.9375 0.96875 C 0.8296647 1.07645 0.58008613 3.47945 0.40625 5.84375 C -0.10266094 12.76575 -0.14364207 26.2221 0.34375 33.625 C 0.48243371 35.7315 0.8386581 38.9825 0.9375 39.0625 C 0.99264938 39.1066 3.0330773 39.36555 4.15625 39.46875 C 6.1756392 39.65345 8.1378923 39.7642 11.21875 39.875 C 17.63765 40.1063 28.576193 39.9823 33.78125 39.625 C 36.544018 39.4351 39.09375 39.1344 39.09375 39 C 39.09375 38.9617 39.15359 38.59435 39.21875 38.15625 C 39.715987 34.81415 40.000409 28.256 40 20 C 39.999615 11.554 39.724539 5.19195 39.1875 1.59375 C 39.079152 0.86795 39.219516 0.943 37.71875 0.75 C 33.724984 0.2366 26.508982 -0.014975 19.40625 0 z M 5.15625 21.5 C 5.2508284 21.496746 5.3373453 21.516068 5.4375 21.5625 C 5.4442218 21.565616 5.4620316 21.559173 5.46875 21.5625 C 6.1303654 21.8162 8.5231039 22.4767 9.75 22.75 C 13.312678 23.5436 16.127261 23.875 20 23.875 C 23.575019 23.875 25.91387 23.6376 29.09375 23 C 30.848792 22.6479 33.650045 21.9005 34.53125 21.5625 C 34.551074 21.5549 34.574609 21.556518 34.59375 21.5625 C 34.716908 21.520786 34.854112 21.537466 34.96875 21.59375 C 35.162546 21.688898 35.275772 21.906636 35.3125 22.1875 C 35.342264 22.25135 35.344076 22.36195 35.34375 22.59375 C 35.340069 25.14285 34.386428 28.04385 32.875 30.15625 C 32.223534 31.06655 30.948638 32.36635 30.03125 33.03125 C 27.572118 34.81315 24.551221 35.86115 21.15625 36.09375 C 20.526725 36.13675 19.924916 36.16625 19.8125 36.15625 C 17.822918 36.05305 16.698354 35.8821 15.25 35.5 C 12.889829 34.8772 10.736315 33.7602 9.03125 32.25 C 6.4190162 29.9365 4.8866252 26.6763 4.71875 23.125 L 4.65625 22.1875 C 4.6561048 22.178158 4.6561794 22.165495 4.65625 22.15625 L 4.65625 22.125 C 4.6650324 21.894138 4.7594017 21.705017 4.90625 21.59375 C 4.9833824 21.535307 5.0616716 21.503254 5.15625 21.5 z "
       transform="translate(0,1012.3622)"
       id="path3384" />
    <path
       style="fill:#ffffff;fill-opacity:1;stroke:none"
       d="M 11 5 C 7.6862915 5 5 7.2385763 5 10 C 5 11.035534 5.384304 11.983245 6.03125 12.78125 C 7.0598388 12.544302 8.8458006 12.629526 10.8125 13.03125 C 12.209299 13.316564 13.434933 13.722952 14.34375 14.15625 C 15.93976 13.257714 17 11.72589 17 10 C 17 7.2385763 14.313708 5 11 5 z "
       transform="translate(0,1012.3622)"
       id="path3436" />
    <path
       style="fill:#ffffff;fill-opacity:1;stroke:none"
       d="M 29 5 C 25.686292 5 23 7.2385671 23 10 C 23 11.867362 24.242358 13.485129 26.0625 14.34375 C 26.938306 13.96053 28.057686 13.631312 29.3125 13.375 C 31.074856 13.015016 32.662688 12.906588 33.71875 13.0625 C 34.511134 12.215075 35 11.15754 35 10 C 35 7.2385671 32.313708 5 29 5 z "
       transform="translate(0,1012.3622)"
       id="path3436-5" />
    <path
       sodipodi:type="arc"
       style="fill:#000000;fill-opacity:1;stroke:none"
       id="path3436-5-0-8"
       sodipodi:cx="10"
       sodipodi:cy="10.5"
       sodipodi:rx="4"
       sodipodi:ry="4.5"
       d="M 14,10.5 C 14,12.985281 12.209139,15 10,15 7.790861,15 6,12.985281 6,10.5 6,8.0147186 7.790861,6 10,6 c 2.209139,0 4,2.0147186 4,4.5 z"
       transform="matrix(0.75,0,0,0.55556537,20.5,1017.0288)" />
    <path
       sodipodi:type="arc"
       style="fill:#000000;fill-opacity:1;stroke:none"
       id="path3436-5-0-8-0"
       sodipodi:cx="10"
       sodipodi:cy="10.5"
       sodipodi:rx="4"
       sodipodi:ry="4.5"
       d="M 14,10.5 C 14,12.985281 12.209139,15 10,15 7.790861,15 6,12.985281 6,10.5 6,8.0147186 7.790861,6 10,6 c 2.209139,0 4,2.0147186 4,4.5 z"
       transform="matrix(0.75,0,0,0.55556537,4.5,1017.0288)" />
    <path
       style="fill:#ffffff;fill-opacity:1;stroke:none"
       d="M 12.708359,34.54862 C 8.5681301,32.692633 5.7333071,29.147923 4.9785556,24.883144 4.7870401,23.800972 4.6634004,22.138814 4.7562522,21.894595 c 0.1422374,-0.374113 0.3292417,-0.390516 1.2787869,-0.112172 5.2668129,1.543884 9.0036859,2.108391 13.9569389,2.108391 3.549128,0 5.84875,-0.222464 9.156614,-0.885804 1.535941,-0.308009 4.48902,-1.062622 5.154375,-1.317119 0.845061,-0.323235 1.091231,0.149527 0.938596,1.802538 -0.250798,2.716099 -1.222938,5.177857 -2.828767,7.163316 -0.68217,0.843437 -1.937992,2.022172 -2.753995,2.584942 -0.66863,0.461132 -2.260281,1.319607 -2.78712,1.503264 -0.271931,0.09479 -0.277626,0.09051 -0.655982,-0.492926 -1.849804,-2.852482 -5.689161,-4.028104 -8.993471,-2.753827 -1.36137,0.525 -2.693976,1.609265 -3.409014,2.773718 -0.194455,0.316672 -0.373441,0.576017 -0.397748,0.576322 -0.02431,2.65e-4 -0.342505,-0.133174 -0.707107,-0.296618 l 0,0 z"
       id="path3617"
       inkscape:connector-curvature="0"
       transform="translate(0,1012.3622)" />
  </g>
</svg>
