<?xml version="1.0" encoding="UTF-8" standalone="no"?>
<svg
   xmlns:dc="http://purl.org/dc/elements/1.1/"
   xmlns:cc="http://creativecommons.org/ns#"
   xmlns:rdf="http://www.w3.org/1999/02/22-rdf-syntax-ns#"
   xmlns:svg="http://www.w3.org/2000/svg"
   xmlns="http://www.w3.org/2000/svg"
   xmlns:sodipodi="http://sodipodi.sourceforge.net/DTD/sodipodi-0.dtd"
   xmlns:inkscape="http://www.inkscape.org/namespaces/inkscape"
   version="1.1"
   width="50"
   height="50"
   viewBox="0 0 50 50"
   id="svg2"
   inkscape:version="0.48.5 r10040"
   sodipodi:docname="settings.svg">
  <metadata
     id="metadata10">
    <rdf:RDF>
      <cc:Work
         rdf:about="">
        <dc:format>image/svg+xml</dc:format>
        <dc:type
           rdf:resource="http://purl.org/dc/dcmitype/StillImage" />
      </cc:Work>
    </rdf:RDF>
  </metadata>
  <defs
     id="defs8" />
  <sodipodi:namedview
     pagecolor="#ffffff"
     bordercolor="#666666"
     borderopacity="1"
     objecttolerance="10"
     gridtolerance="10"
     guidetolerance="10"
     inkscape:pageopacity="0"
     inkscape:pageshadow="2"
     inkscape:window-width="1680"
     inkscape:window-height="1026"
     id="namedview6"
     showgrid="true"
     inkscape:zoom="13.906433"
     inkscape:cx="23.789175"
     inkscape:cy="27.806806"
     inkscape:window-x="0"
     inkscape:window-y="24"
     inkscape:window-maximized="1"
     inkscape:current-layer="svg2">
    <inkscape:grid
       type="xygrid"
       id="grid2987"
       empspacing="5"
       visible="true"
       enabled="true"
       snapvisiblegridlinesonly="true" />
  </sodipodi:namedview>
  <path
     d="M 25.03802,33.05 A 7.951076,8.05 0 0 1 17.086944,25 7.951076,8.05 0 0 1 25.03802,16.95 7.951076,8.05 0 0 1 32.989096,25 7.951076,8.05 0 0 1 25.03802,33.05 m 16.878997,-5.819 c 0.09087,-0.736 0.159023,-1.472 0.159023,-2.231 0,-0.759 -0.06815,-1.518 -0.159023,-2.3 l 4.793364,-3.749 c 0.43163,-0.345 0.545217,-0.966 0.272609,-1.472 L 42.439518,9.521 C 42.166909,9.0150001 41.553539,8.8080001 41.053758,9.0150001 L 35.397136,11.315 C 34.215833,10.418 32.989096,9.6359996 31.557902,9.061 L 30.71736,2.966 C 30.62649,2.414 30.149427,2 29.581492,2 H 20.494547 C 19.926614,2 19.449549,2.414 19.35868,2.966 l -0.840542,6.095 c -1.431194,0.5749996 -2.657931,1.357 -3.839234,2.254 L 9.0222812,9.0150001 c -0.499782,-0.207 -1.1131506,0 -1.3857592,0.5059999 l -4.5434718,7.958 c -0.2953257,0.506 -0.1590214,1.127 0.2726083,1.472 L 8.1590214,22.7 C 8.0681535,23.482 8,24.241 8,25 c 0,0.759 0.068153,1.495 0.1590214,2.231 l -4.7933629,3.818 c -0.4316297,0.345 -0.567934,0.966 -0.2726083,1.472 l 4.5434718,7.958 c 0.2726086,0.506 0.8859772,0.69 1.3857592,0.506 l 5.6566228,-2.323 c 1.181303,0.92 2.40804,1.702 3.839234,2.277 l 0.840542,6.095 C 19.449549,47.586 19.926614,48 20.494547,48 h 9.086945 c 0.567935,0 1.044998,-0.414 1.135868,-0.966 l 0.840542,-6.095 c 1.431194,-0.598 2.657931,-1.357 3.839234,-2.277 l 5.656622,2.323 c 0.499781,0.184 1.113151,0 1.38576,-0.506 l 4.543472,-7.958 c 0.272608,-0.506 0.159021,-1.127 -0.272609,-1.472 l -4.793364,-3.818 z"
     id="path4"
     style="fill:#00bcd4;fill-opacity:1"
     inkscape:connector-curvature="0" />
</svg>
